<?xml version="1.0" encoding="UTF-8"?>
<svg width="70px" height="47px" viewBox="0 0 70 47" version="1.1" xmlns="http://www.w3.org/2000/svg" xmlns:xlink="http://www.w3.org/1999/xlink">
    <title>china</title>
    <g id="Page-1" stroke="none" stroke-width="1" fill="none" fill-rule="evenodd">
        <g id="Desktop-HD" transform="translate(-164.000000, -291.000000)" fill-rule="nonzero">
            <g id="china" transform="translate(164.000000, 291.000000)">
                <polygon id="Path" fill="#D60A2E" points="0 0 70 0 70 47 0 47"></polygon>
                <g id="Group" transform="translate(4.000000, 4.000000)" fill="#FED953">
                    <polygon id="Path" points="7.98909091 4.95044155 10.4506494 9.66768285 15.9545455 10.4238721 11.9714805 14.0956051 12.9122078 19.2803553 7.98909091 16.8323204 3.0652987 19.2803553 4.00602597 14.0956051 0.022961039 10.4238721 5.52685714 9.66768285"></polygon>
                    <polygon id="Path" points="22.5693506 14.0042748 23.5532987 15.8889999 25.7528312 16.1910924 24.1610909 17.6587637 24.5365714 19.7299814 22.5693506 18.7521725 20.6021299 19.7299814 20.9776104 17.6587637 19.3865455 16.1910924 21.5860779 15.8889999"></polygon>
                    <polygon id="Path" points="21.4050909 5.76283404 23.2028052 6.99930563 25.2983377 6.29995832 24.6101818 8.29900588 25.9615065 9.96785932 23.739013 9.96658198 22.4775065 11.6973867 21.7920519 9.6977005 19.6620779 9.09862491 21.4604675 7.86406934"></polygon>
                    <polygon id="Path" points="18.5221299 0.0754479349 18.1020779 2.13964018 19.6620779 3.63732916 17.4564675 3.89726921 16.4326753 5.76283404 15.4899221 3.85958748 13.2971429 3.51470388 14.9199481 2.07832753 14.5883636 8.44806008e-05 16.5346494 1.01557509"></polygon>
                    <polygon id="Path" points="18.5221299 21.2238383 18.1020779 23.2880305 19.6620779 24.7850809 17.4564675 25.0450209 16.4326753 26.9105857 15.4899221 25.0073392 13.2971429 24.6630942 14.9199481 23.2267179 14.5883636 21.1484748 16.5346494 22.1639655"></polygon>
                </g>
            </g>
        </g>
    </g>
</svg>