<?xml version="1.0" encoding="UTF-8"?>
<svg width="70px" height="47px" viewBox="0 0 70 47" version="1.1" xmlns="http://www.w3.org/2000/svg" xmlns:xlink="http://www.w3.org/1999/xlink">
    <title>Group 2</title>
    <g id="Page-1" stroke="none" stroke-width="1" fill="none" fill-rule="evenodd">
        <g id="Desktop-HD" transform="translate(-82.000000, -291.000000)" fill-rule="nonzero">
            <g id="Group-2" transform="translate(82.000000, 291.000000)">
                <g id="china" transform="translate(6.000000, 3.000000)">
                    <polygon id="Path" fill="#D60A2E" points="0 0.000551724138 57 0.000551724138 57 39.9988966 0 39.9988966"></polygon>
                    <g id="Group" transform="translate(3.014423, 2.896552)" fill="#FED953">
                        <polygon id="Path" points="6.48375 4.40055172 8.48149038 8.47558621 12.9483173 9.12882759 9.71575962 12.3006897 10.4792308 16.7795862 6.48375 14.6648276 2.48772115 16.7795862 3.25119231 12.3006897 0.0186346154 9.12882759 4.48546154 8.47558621"></polygon>
                        <polygon id="Path" points="18.3167308 12.2217931 19.1152788 13.849931 20.9003654 14.1108966 19.6085481 15.3787586 19.9132788 17.168 18.3167308 16.3233103 16.7201827 17.168 17.0249135 15.3787586 15.7336442 14.1108966 17.5187308 13.849931"></polygon>
                        <polygon id="Path" points="17.3718462 5.10234483 18.8308269 6.17048276 20.5315096 5.56634483 19.9730192 7.29324138 21.0697212 8.73489655 19.266 8.7337931 18.2421923 10.2289655 17.6858942 8.50151724 15.9572596 7.984 17.4167885 6.91751724"></polygon>
                        <polygon id="Path" points="15.0321058 0.189241379 14.6912019 1.97241379 15.9572596 3.2662069 14.1672404 3.49075862 13.3363558 5.10234483 12.5712404 3.4582069 10.7916346 3.16027586 12.1086635 1.91944828 11.8395577 0.124137931 13.4191154 1.00137931"></polygon>
                        <polygon id="Path" points="15.0321058 18.4584828 14.6912019 20.2416552 15.9572596 21.5348966 14.1672404 21.7594483 13.3363558 23.3710345 12.5712404 21.7268966 10.7916346 21.4295172 12.1086635 20.1886897 11.8395577 18.3933793 13.4191154 19.2706207"></polygon>
                    </g>
                </g>
                <g id="france">
                    <rect id="Rectangle" fill="#F0F0F0" x="0" y="0.0454883041" width="70" height="46.908886"></rect>
                    <rect id="Rectangle" fill="#0052B4" x="0" y="0.0454883041" width="23.332832" height="46.908886"></rect>
                    <rect id="Rectangle" fill="#D80027" x="46.667168" y="0.0454883041" width="23.332832" height="46.908886"></rect>
                </g>
                <g id="japan">
                    <rect id="Rectangle" fill="#F0F0F0" x="0" y="0.0454883041" width="70" height="46.908886"></rect>
                    <ellipse id="Oval" fill="#D80027" cx="35" cy="23.4991754" rx="13.125" ry="13.1929825"></ellipse>
                </g>
                <rect id="Rectangle" fill="#F0F0F0" x="0" y="0" width="70" height="47"></rect>
                <g id="Path-2" fill="#D80027">
                    <polygon id="Path" points="39.375 0 30.625 0 30.625 19.0564386 0 19.0564386 0 27.8517602 30.625 27.8517602 30.625 46.9081988 39.375 46.9081988 39.375 27.8517602 70 27.8517602 70 19.0564386 39.375 19.0564386"></polygon>
                </g>
                <g id="Group" transform="translate(43.000000, 32.000000)" fill="#0052B4">
                    <polygon id="Path" points="11.1203731 0.0479464286 27 8.84383929 27 0.0479464286"></polygon>
                    <polygon id="Path" points="0.0875820896 0.0479464286 27 14.9547321 27 10.7394643 7.69795522 0.0479464286"></polygon>
                    <polygon id="Path" points="19.8314328 14.9547321 0.0875820896 4.01758929 0.0875820896 14.9547321"></polygon>
                </g>
                <polygon id="Path" fill="#F0F0F0" points="43 32 70 47 70 42.7583735 50.6351399 32"></polygon>
                <polygon id="Path" fill="#D80027" points="43 32 70 47 70 42.7583735 50.6351399 32"></polygon>
                <g id="Group" transform="translate(0.000000, 32.000000)" fill="#0052B4">
                    <polygon id="Path" points="12.1353582 0.0476785714 0 6.76955357 0 0.0476785714"></polygon>
                    <polygon id="Path" points="26.9124179 1.94330357 26.9124179 14.9545982 3.42416418 14.9545982"></polygon>
                </g>
                <polygon id="Path" fill="#D80027" points="19.3648601 32 0 42.7583735 0 47 0 47 27 32"></polygon>
                <g id="Group" fill="#0052B4">
                    <polygon id="Path" points="15.8796269 14.9509821 0 6.15508929 0 14.9509821"></polygon>
                    <polygon id="Path" points="26.9124179 14.9509821 0 0.0441964286 0 4.25946429 19.3020448 14.9509821"></polygon>
                    <polygon id="Path" points="7.16856716 0.0441964286 26.9124179 10.9813393 26.9124179 0.0441964286"></polygon>
                </g>
                <polygon id="Path" fill="#F0F0F0" points="27 15 0 0 0 4.24162654 19.3648601 15"></polygon>
                <polygon id="Path" fill="#D80027" points="27 15 0 0 0 4.24162654 19.3648601 15"></polygon>
                <g id="Group" transform="translate(43.000000, 0.000000)" fill="#0052B4">
                    <polygon id="Path" points="14.8646418 14.95125 27 8.229375 27 14.95125"></polygon>
                    <polygon id="Path" points="0.0875820896 13.055625 0.0875820896 0.0443303571 23.5758358 0.0443303571"></polygon>
                </g>
                <polygon id="Path" fill="#D80027" points="50.6351399 15 70 4.24162654 70 0 70 0 43 15"></polygon>
            </g>
        </g>
    </g>
</svg>